# xmcd CD database file
#
# Track frame offsets:
#	150
#	15315
#	34087
#	51302
#	66787
#	79700
#	107625
#	125055
#	138802
#	152490
#	176460
#	192902
#	205027
#
# Disc length: 3055 seconds
#
# Revision: 1
# Processed by: cddbd v1.4PL0 Copyright (c) Steve Scherf et al.
# Submitted via: CDex 1.50
#
DISCID=a30bed0d
DTITLE=Nashwaak Sound - Nashwaak Sound
DYEAR=2000
DGENRE=Country
TTITLE0=Bob Cleghorn - Nashwaak River Skies
TTITLE1=Danny Paradis - Hey Blacktop
TTITLE2=Ricky Bartlett - With A Song
TTITLE3=Sheila Dorcas - Eagle
TTITLE4=Blake Kirby - Goodtime Country Music
TTITLE5=Jon Soderman - Moon On The Miramichi
TTITLE6=Veronica Sparkes - The Carpenter
TTITLE7=Sam Johnston - Steppin' Out Together
TTITLE8=John Fraser - Gotta Move on
TTITLE9=Andrew O'Hara - The Kiss
TTITLE10=Duane Drost - God Sent Me An Angel
TTITLE11=Millen Anderson - 'Til You Get Home
TTITLE12=Merle Gullison - Fiddle Medley
EXTD=YEAR: 2000
EXTT0=
EXTT1=
EXTT2=
EXTT3=
EXTT4=
EXTT5=
EXTT6=
EXTT7=
EXTT8=
EXTT9=
EXTT10=
EXTT11=
EXTT12=
PLAYORDER=
